<svg xmlns="http://www.w3.org/2000/svg" xmlns:xlink="http://www.w3.org/1999/xlink" fill="none" version="1.1" width="320" height="320" viewBox="0 0 320 320"><defs><filter id="master_svg0_244_2769" filterUnits="objectBoundingBox" color-interpolation-filters="sRGB" x="0" y="0" width="320" height="320"><feFlood flood-opacity="0" result="BackgroundImageFix"/><feBlend mode="normal" in="SourceGraphic" in2="BackgroundImageFix" result="shape"/><feColorMatrix in="SourceAlpha" type="matrix" result="hardAlpha" values="0 0 0 0 0 0 0 0 0 0 0 0 0 0 0 0 0 0 127 0"/><feOffset dy="4" dx="0"/><feGaussianBlur stdDeviation="5"/><feComposite in2="hardAlpha" operator="arithmetic" k2="-1" k3="1"/><feColorMatrix type="matrix" values="0 0 0 0 0 0 0 0 0 0 0 0 0 0 0 0 0 0 0.3019607961177826 0"/><feBlend mode="normal" in2="shape" result="effect1_innerShadow"/></filter><clipPath id="master_svg1_244_2769"><rect x="0" y="0" width="320" height="320" rx="0"/></clipPath></defs><g filter="url(#master_svg0_244_2769)"><g clip-path="url(#master_svg1_244_2769)"><g><path d="M226.66681640625,186.666111328125L168.78681640625,186.666111328125C150.86181640625,237.367111328125,89.02001640625,256.296111328125,45.78671640625,224.316111328125C2.553516406250001,192.337111328125,2.553516406250001,127.663111328125,45.78681640625,95.683411328125C89.02011640625,63.703711328124996,150.86181640625,82.633131328125,168.78681640625,133.333311328125L306.66681640625,133.333311328125L306.66681640625,186.666111328125L279.99981640625,186.666111328125L279.99981640625,240.000111328125L226.66681640625,240.000111328125L226.66681640625,186.666111328125ZM93.33321640625,186.666111328125C108.06081640625,186.666111328125,119.99981640625,174.727511328125,119.99981640625,159.999911328125C119.99981640625,145.272311328125,108.06081640625,133.333311328125,93.33321640625,133.333311328125C78.60561640625,133.333311328125,66.66651640625,145.272311328125,66.66651640625,159.999911328125C66.66651640625,174.727511328125,78.60561640625,186.666111328125,93.33321640625,186.666111328125Z" fill="#23F308" fill-opacity="1"/></g></g></g></svg>